<svg id="visual" viewBox="0 0 900 450" width="900" height="450" xmlns="http://www.w3.org/2000/svg" xmlns:xlink="http://www.w3.org/1999/xlink" version="1.1"><rect x="0" y="0" width="900" height="450" fill="#fff"></rect><defs><linearGradient id="grad1_0" x1="50%" y1="0%" x2="100%" y2="100%"><stop offset="10%" stop-color="#ebf1ef" stop-opacity="1"></stop><stop offset="90%" stop-color="#ebf1ef" stop-opacity="1"></stop></linearGradient></defs><defs><linearGradient id="grad1_1" x1="50%" y1="0%" x2="100%" y2="100%"><stop offset="10%" stop-color="#ebf1ef" stop-opacity="1"></stop><stop offset="90%" stop-color="#ffffff" stop-opacity="1"></stop></linearGradient></defs><defs><linearGradient id="grad2_0" x1="0%" y1="0%" x2="50%" y2="100%"><stop offset="10%" stop-color="#ebf1ef" stop-opacity="1"></stop><stop offset="90%" stop-color="#ebf1ef" stop-opacity="1"></stop></linearGradient></defs><defs><linearGradient id="grad2_1" x1="0%" y1="0%" x2="50%" y2="100%"><stop offset="10%" stop-color="#ffffff" stop-opacity="1"></stop><stop offset="90%" stop-color="#ebf1ef" stop-opacity="1"></stop></linearGradient></defs><g transform="translate(900, 0)"><path d="M0 202.5C-15.1 177.2 -30.2 152 -45.1 138.9C-60 125.7 -74.7 124.8 -85.8 118.1C-96.9 111.5 -104.4 99.1 -124.6 90.5C-144.7 81.9 -177.5 77 -192.6 62.6C-207.7 48.1 -205.1 24.1 -202.5 0L0 0Z" fill="#f5f8f7"></path><path d="M0 101.2C-7.6 88.6 -15.1 76 -22.6 69.4C-30 62.9 -37.4 62.4 -42.9 59.1C-48.5 55.7 -52.2 49.6 -62.3 45.3C-72.4 41 -88.7 38.5 -96.3 31.3C-103.8 24.1 -102.5 12 -101.2 0L0 0Z" fill="#ebf1ef"></path></g><g transform="translate(0, 450)"><path d="M0 -202.5C14.9 -181.6 29.8 -160.7 51.3 -157.9C72.8 -155 100.9 -170.3 119 -163.8C137.1 -157.4 145.2 -129.3 146.4 -106.4C147.7 -83.5 142.1 -65.7 150.3 -48.8C158.5 -32 180.5 -16 202.5 0L0 0Z" fill="#f5f8f7"></path><path d="M0 -101.2C7.4 -90.8 14.9 -80.4 25.6 -78.9C36.4 -77.5 50.5 -85.1 59.5 -81.9C68.6 -78.7 72.6 -64.7 73.2 -53.2C73.8 -41.7 71 -32.8 75.1 -24.4C79.2 -16 90.2 -8 101.2 0L0 0Z" fill="#ebf1ef"></path></g></svg>